<svg width="35" height="35" viewBox="0 0 35 35" fill="none" xmlns="http://www.w3.org/2000/svg">
<path d="M34.5 17.5C34.5 26.8888 26.8888 34.5 17.5 34.5C8.11116 34.5 0.5 26.8888 0.5 17.5C0.5 8.11116 8.11116 0.5 17.5 0.5C26.8888 0.5 34.5 8.11116 34.5 17.5Z" stroke="white"/>
<path d="M25.9636 13.6909C25.9758 14.1273 25.9849 14.5151 25.9909 14.8545C25.997 15.1939 26 15.9091 26 17C26 18.0909 25.997 18.8061 25.9909 19.1455C25.9849 19.4848 25.9758 19.8667 25.9636 20.2909C25.9394 20.7273 25.8939 21.097 25.8273 21.4C25.7606 21.703 25.6788 21.9818 25.5818 22.2364C25.4848 22.503 25.3636 22.7515 25.2182 22.9818C25.0727 23.2121 24.8848 23.4364 24.6545 23.6545C24.4364 23.8848 24.2121 24.0727 23.9818 24.2182C23.7515 24.3636 23.503 24.4848 23.2364 24.5818C22.9818 24.6788 22.703 24.7606 22.4 24.8273C22.097 24.8939 21.7333 24.9394 21.3091 24.9636C20.8727 24.9758 20.4849 24.9848 20.1455 24.9909C19.8061 24.997 19.0909 25 18 25C16.9091 25 16.1939 24.997 15.8545 24.9909C15.5151 24.9848 15.1333 24.9758 14.7091 24.9636C14.2727 24.9394 13.903 24.8939 13.6 24.8273C13.297 24.7606 13.0182 24.6788 12.7636 24.5818C12.497 24.4848 12.2485 24.3636 12.0182 24.2182C11.7879 24.0727 11.5636 23.8848 11.3455 23.6545C11.1151 23.4364 10.9273 23.2121 10.7818 22.9818C10.6364 22.7515 10.5152 22.503 10.4182 22.2364C10.3212 21.9818 10.2394 21.703 10.1727 21.4C10.1061 21.097 10.0606 20.7333 10.0364 20.3091C10.0242 19.8727 10.0151 19.4848 10.0091 19.1455C10.003 18.8061 10 18.0909 10 17C10 15.9091 10.003 15.1939 10.0091 14.8545C10.0151 14.5151 10.0242 14.1333 10.0364 13.7091C10.0606 13.2727 10.1061 12.903 10.1727 12.6C10.2394 12.297 10.3212 12.0182 10.4182 11.7636C10.5152 11.497 10.6364 11.2485 10.7818 11.0182C10.9273 10.7879 11.1151 10.5636 11.3455 10.3455C11.5636 10.1152 11.7879 9.92727 12.0182 9.78182C12.2485 9.63636 12.497 9.51515 12.7636 9.41818C13.0182 9.32121 13.297 9.23939 13.6 9.17273C13.903 9.10606 14.2667 9.06061 14.6909 9.03636C15.1273 9.02424 15.5151 9.01515 15.8545 9.00909C16.1939 9.00303 16.9091 9 18 9C19.0909 9 19.8061 9.00303 20.1455 9.00909C20.4849 9.01515 20.8667 9.02424 21.2909 9.03636C21.7273 9.06061 22.097 9.10606 22.4 9.17273C22.703 9.23939 22.9818 9.32121 23.2364 9.41818C23.503 9.51515 23.7515 9.63636 23.9818 9.78182C24.2121 9.92727 24.4364 10.1152 24.6545 10.3455C24.8848 10.5636 25.0727 10.7879 25.2182 11.0182C25.3636 11.2485 25.4848 11.497 25.5818 11.7636C25.6788 12.0182 25.7606 12.297 25.8273 12.6C25.8939 12.903 25.9394 13.2667 25.9636 13.6909ZM24.5091 20.2364C24.5333 19.8121 24.5485 19.4333 24.5545 19.1C24.5606 18.7667 24.5636 18.0667 24.5636 17C24.5636 15.9333 24.5606 15.2333 24.5545 14.9C24.5485 14.5667 24.5333 14.1879 24.5091 13.7636C24.497 13.3758 24.4636 13.0667 24.4091 12.8364C24.3545 12.6061 24.297 12.4182 24.2364 12.2727C24.1636 12.0909 24.0818 11.9273 23.9909 11.7818C23.9 11.6364 23.7818 11.497 23.6364 11.3636C23.503 11.2182 23.3636 11.1 23.2182 11.0091C23.0727 10.9182 22.9091 10.8364 22.7273 10.7636C22.5818 10.703 22.3939 10.6455 22.1636 10.5909C21.9333 10.5364 21.6242 10.503 21.2364 10.4909C20.8121 10.4667 20.4333 10.4515 20.1 10.4455C19.7667 10.4394 19.0667 10.4364 18 10.4364C16.9333 10.4364 16.2333 10.4394 15.9 10.4455C15.5667 10.4515 15.1879 10.4667 14.7636 10.4909C14.3758 10.503 14.0667 10.5364 13.8364 10.5909C13.6061 10.6455 13.4182 10.703 13.2727 10.7636C13.0909 10.8364 12.9273 10.9182 12.7818 11.0091C12.6364 11.1 12.497 11.2182 12.3636 11.3636C12.2182 11.497 12.1 11.6364 12.0091 11.7818C11.9182 11.9273 11.8364 12.0909 11.7636 12.2727C11.703 12.4182 11.6455 12.6061 11.5909 12.8364C11.5364 13.0667 11.503 13.3758 11.4909 13.7636C11.4667 14.1879 11.4515 14.5667 11.4455 14.9C11.4394 15.2333 11.4364 15.9333 11.4364 17C11.4364 18.0667 11.4394 18.7667 11.4455 19.1C11.4515 19.4333 11.4667 19.8121 11.4909 20.2364C11.503 20.6242 11.5364 20.9333 11.5909 21.1636C11.6455 21.3939 11.703 21.5818 11.7636 21.7273C11.8364 21.9091 11.9182 22.0727 12.0091 22.2182C12.1 22.3636 12.2182 22.503 12.3636 22.6364C12.497 22.7818 12.6364 22.9 12.7818 22.9909C12.9273 23.0818 13.0909 23.1636 13.2727 23.2364C13.4182 23.297 13.6061 23.3545 13.8364 23.4091C14.0667 23.4636 14.3758 23.497 14.7636 23.5091C15.1879 23.5333 15.5667 23.5485 15.9 23.5545C16.2333 23.5606 16.9333 23.5636 18 23.5636C19.0667 23.5636 19.7667 23.5606 20.1 23.5545C20.4333 23.5485 20.8121 23.5333 21.2364 23.5091C21.6242 23.497 21.9333 23.4636 22.1636 23.4091C22.3939 23.3545 22.5818 23.297 22.7273 23.2364C22.9091 23.1636 23.0727 23.0818 23.2182 22.9909C23.3636 22.9 23.503 22.7818 23.6364 22.6364C23.7818 22.503 23.9 22.3636 23.9909 22.2182C24.0818 22.0727 24.1636 21.9091 24.2364 21.7273C24.297 21.5818 24.3545 21.3939 24.4091 21.1636C24.4636 20.9333 24.497 20.6242 24.5091 20.2364ZM18 12.8909C18.5697 12.8909 19.103 13 19.6 13.2182C20.097 13.4242 20.5333 13.7151 20.9091 14.0909C21.2848 14.4667 21.5758 14.903 21.7818 15.4C22 15.897 22.1091 16.4303 22.1091 17C22.1091 17.5697 22 18.103 21.7818 18.6C21.5758 19.097 21.2848 19.5333 20.9091 19.9091C20.5333 20.2849 20.097 20.5758 19.6 20.7818C19.103 21 18.5697 21.1091 18 21.1091C17.4303 21.1091 16.897 21 16.4 20.7818C15.903 20.5758 15.4667 20.2849 15.0909 19.9091C14.7152 19.5333 14.4242 19.097 14.2182 18.6C14 18.103 13.8909 17.5697 13.8909 17C13.8909 16.4303 14 15.897 14.2182 15.4C14.4242 14.903 14.7152 14.4667 15.0909 14.0909C15.4667 13.7151 15.903 13.4242 16.4 13.2182C16.897 13 17.4303 12.8909 18 12.8909ZM18 19.6727C18.7394 19.6727 19.3697 19.4121 19.8909 18.8909C20.4121 18.3697 20.6727 17.7394 20.6727 17C20.6727 16.2606 20.4121 15.6303 19.8909 15.1091C19.3697 14.5879 18.7394 14.3273 18 14.3273C17.2606 14.3273 16.6303 14.5879 16.1091 15.1091C15.5879 15.6303 15.3273 16.2606 15.3273 17C15.3273 17.7394 15.5879 18.3697 16.1091 18.8909C16.6303 19.4121 17.2606 19.6727 18 19.6727ZM23.2 12.5091C23.2606 12.7636 23.2212 13.003 23.0818 13.2273C22.9424 13.4515 22.7455 13.5939 22.4909 13.6545C22.2364 13.7152 21.997 13.6758 21.7727 13.5364C21.5485 13.397 21.4061 13.2 21.3455 12.9455C21.2848 12.6909 21.3242 12.4515 21.4636 12.2273C21.603 12.003 21.8 11.8606 22.0545 11.8C22.3091 11.7273 22.5485 11.7636 22.7727 11.9091C22.997 12.0545 23.1394 12.2545 23.2 12.5091Z" fill="white"/>
</svg>
