<svg width="35" height="35" viewBox="0 0 35 35" fill="none" xmlns="http://www.w3.org/2000/svg">
<path fill-rule="evenodd" clip-rule="evenodd" d="M26 24H22.9231V18.3967C22.9231 16.8596 22.2715 16.0022 21.1031 16.0022C19.8315 16.0022 19.0769 16.8956 19.0769 18.3967V24H16V13.5924H19.0769V14.7629C19.0769 14.7629 20.0423 13 22.2177 13C24.3938 13 26 14.3818 26 17.2415C26 20.1004 26 24 26 24ZM11.5003 11C10.6715 11 10 10.3282 10 9.4997C10 8.67181 10.6715 8 11.5003 8C12.3285 8 13 8.67181 13 9.4997C13.0006 10.3282 12.3285 11 11.5003 11ZM10 24H13V14H10V24Z" fill="black"/>
<path d="M34.5 17.5C34.5 26.8888 26.8888 34.5 17.5 34.5C8.11116 34.5 0.5 26.8888 0.5 17.5C0.5 8.11116 8.11116 0.5 17.5 0.5C26.8888 0.5 34.5 8.11116 34.5 17.5Z" stroke="black"/>
</svg>
