<svg width="22" height="16" viewBox="0 0 22 16" fill="none" xmlns="http://www.w3.org/2000/svg">
<path fill-rule="evenodd" clip-rule="evenodd" d="M15.6699 9.13086C17.0399 10.0609 18 11.3209 18 13.0009V16.001H22V13.0009C22 10.8209 18.43 9.53087 15.6699 9.13086Z" fill="grey"/>
<path d="M8.0002 8.00015C10.2094 8.00015 12.0003 6.20925 12.0003 4.00007C12.0003 1.79089 10.2094 0 8.0002 0C5.79102 0 4.00012 1.79089 4.00012 4.00007C4.00012 6.20925 5.79102 8.00015 8.0002 8.00015Z" fill="grey"/>
<path fill-rule="evenodd" clip-rule="evenodd" d="M13.9999 8.00015C16.21 8.00015 18 6.21011 18 4.00007C18 1.79003 16.21 0 13.9999 0C13.5299 0 13.0899 0.100002 12.6699 0.240004C13.4999 1.27002 13.9999 2.58005 13.9999 4.00007C13.9999 5.4201 13.4999 6.73012 12.6699 7.76014C13.0899 7.90014 13.5299 8.00015 13.9999 8.00015Z" fill="grey"/>
<path fill-rule="evenodd" clip-rule="evenodd" d="M8.00015 9.00024C5.3301 9.00024 0 10.3403 0 13.0003V16.0004H16.0003V13.0003C16.0003 10.3403 10.6702 9.00024 8.00015 9.00024Z" fill="grey"/>
</svg>
