<svg width="46" height="46" viewBox="0 0 46 46" fill="none" xmlns="http://www.w3.org/2000/svg">
<g id="&#240;&#159;&#166;&#134; icon &#34;account circle&#34;">
<path id="Vector" d="M23.001 3.83325C12.421 3.83325 3.83435 12.4199 3.83435 22.9999C3.83435 33.5799 12.421 42.1666 23.001 42.1666C33.581 42.1666 42.1677 33.5799 42.1677 22.9999C42.1677 12.4199 33.581 3.83325 23.001 3.83325ZM23.001 9.58325C26.1827 9.58325 28.751 12.1516 28.751 15.3333C28.751 18.5149 26.1827 21.0833 23.001 21.0833C19.8193 21.0833 17.251 18.5149 17.251 15.3333C17.251 12.1516 19.8193 9.58325 23.001 9.58325ZM23.001 36.7999C18.2093 36.7999 13.9735 34.3466 11.501 30.6282C11.5585 26.8141 19.1677 24.7249 23.001 24.7249C26.8152 24.7249 34.4435 26.8141 34.501 30.6282C32.0285 34.3466 27.7927 36.7999 23.001 36.7999Z" fill="black"/>
</g>
</svg>
