<svg width="35" height="35" viewBox="0 0 35 35" fill="none" xmlns="http://www.w3.org/2000/svg">
<path d="M34.5 17.5C34.5 26.8888 26.8888 34.5 17.5 34.5C8.11116 34.5 0.5 26.8888 0.5 17.5C0.5 8.11116 8.11116 0.5 17.5 0.5C26.8888 0.5 34.5 8.11116 34.5 17.5Z" stroke="white"/>
<path d="M19.7211 11.6667H21.8435C22.0388 11.6667 22.1973 11.5173 22.1973 11.3333V9.33333C22.1973 9.14933 22.0388 9 21.8435 9H19.7211C17.576 9 15.8299 10.6447 15.8299 12.6667V15H13.3537C13.1585 15 13 15.1493 13 15.3333V17.3333C13 17.5173 13.1585 17.6667 13.3537 17.6667H15.8299V24.6667C15.8299 24.8507 15.9884 25 16.1837 25H18.3061C18.5014 25 18.6599 24.8507 18.6599 24.6667V17.6667H21.1361C21.2882 17.6667 21.4233 17.5747 21.4721 17.4387L22.1796 15.4387C22.2157 15.3373 22.1973 15.2253 22.1308 15.138C22.0636 15.0513 21.9574 15 21.8435 15H18.6599V12.6667C18.6599 12.1153 19.136 11.6667 19.7211 11.6667Z" fill="white"/>
</svg>
