<svg width="720" height="809" viewBox="0 0 720 809" fill="none" xmlns="http://www.w3.org/2000/svg">
<g clip-path="url(#clip0_1_90)">
<rect width="720" height="809" fill="white"/>
<path d="M65.4478 218.66C65.4478 151.033 120.297 96.1831 187.925 96.1831C255.553 96.1831 310.402 151.033 310.402 218.66C310.402 286.288 255.553 341.137 187.925 341.137" stroke="#5278F2" stroke-width="75.7272" stroke-miterlimit="10" stroke-linecap="round"/>
<path d="M709.901 505.137C811.898 505.137 894.583 422.452 894.583 320.456C894.583 218.459 811.898 135.774 709.901 135.774C607.905 135.774 525.22 218.459 525.22 320.456C525.22 422.452 607.905 505.137 709.901 505.137Z" stroke="#FFA119" stroke-width="93.4999" stroke-miterlimit="10"/>
<path d="M503.368 789.399C611.126 789.468 699.413 706.184 707.363 600.459C708.003 591.948 701.026 585 692.491 584.996L314.382 584.818C305.847 584.814 298.864 591.754 299.496 600.266C307.343 705.996 395.609 789.329 503.368 789.399Z" fill="#5278F2"/>
<path d="M234.851 636.937C243.116 639.067 251.651 634.092 252.689 625.62C254.897 607.605 252.949 589.251 246.906 571.992C239.153 549.851 225.009 530.506 206.261 516.403C187.514 502.3 165.006 494.073 141.583 492.763C118.16 491.452 94.8743 497.117 74.6708 509.04C54.4672 520.963 38.2531 538.61 28.0787 559.748C17.9043 580.887 14.2267 604.567 17.5108 627.796C20.795 651.024 30.8935 672.757 46.5292 690.247C58.7172 703.879 73.8429 714.456 90.6804 721.231C98.5988 724.417 107.08 719.35 109.21 711.085L131.099 626.156C133.229 617.891 141.657 612.918 149.922 615.048L234.851 636.937Z" fill="#FFA119"/>
<path d="M333.584 413.41C333.584 421.945 340.607 429.052 348.88 426.954C351.825 426.208 354.718 425.245 357.536 424.07C365.13 420.905 372.03 416.266 377.842 410.418C383.654 404.57 388.265 397.628 391.41 389.987C392.589 387.123 393.554 384.182 394.299 381.189C396.361 372.906 389.256 365.887 380.72 365.887L349.038 365.887C340.503 365.887 333.584 372.806 333.584 381.341V413.41Z" fill="#5278F2"/>
<path d="M339.622 432.845C339.622 424.309 332.649 417.25 324.25 418.769C318.198 419.863 312.266 421.602 306.558 423.967C296.075 428.309 286.55 434.674 278.527 442.697C270.504 450.72 264.139 460.245 259.797 470.728C257.433 476.436 255.693 482.368 254.599 488.42C253.08 496.819 260.139 503.792 268.675 503.792H324.168C332.703 503.792 339.622 496.873 339.622 488.338V432.845Z" fill="#5278F2"/>
<path d="M14.0195 10V18.0742" stroke="#1E1E1E" stroke-width="4" stroke-miterlimit="10" stroke-linecap="round"/>
<path d="M18.0388 14.0371H10" stroke="#1E1E1E" stroke-width="4" stroke-miterlimit="10" stroke-linecap="round"/>
<path d="M26.6733 10V18.0742" stroke="#1E1E1E" stroke-width="4" stroke-miterlimit="10" stroke-linecap="round"/>
<path d="M30.6926 14.0371H22.6538" stroke="#1E1E1E" stroke-width="4" stroke-miterlimit="10" stroke-linecap="round"/>
<path d="M39.3271 10V18.0742" stroke="#1E1E1E" stroke-width="4" stroke-miterlimit="10" stroke-linecap="round"/>
<path d="M43.3464 14.0371H35.3076" stroke="#1E1E1E" stroke-width="4" stroke-miterlimit="10" stroke-linecap="round"/>
<path d="M51.981 10V18.0742" stroke="#1E1E1E" stroke-width="4" stroke-miterlimit="10" stroke-linecap="round"/>
<path d="M56.0002 14.0371H47.9614" stroke="#1E1E1E" stroke-width="4" stroke-miterlimit="10" stroke-linecap="round"/>
<path d="M14.0195 25.8018V33.876" stroke="#1E1E1E" stroke-width="4" stroke-miterlimit="10" stroke-linecap="round"/>
<path d="M18.0388 29.8386H10" stroke="#1E1E1E" stroke-width="4" stroke-miterlimit="10" stroke-linecap="round"/>
<path d="M26.7124 25.8013V33.8755" stroke="#1E1E1E" stroke-width="4" stroke-miterlimit="10" stroke-linecap="round"/>
<path d="M30.7316 29.8389H22.6929" stroke="#1E1E1E" stroke-width="4" stroke-miterlimit="10" stroke-linecap="round"/>
<path d="M39.4053 25.8013V33.8755" stroke="#1E1E1E" stroke-width="4" stroke-miterlimit="10" stroke-linecap="round"/>
<path d="M43.4245 29.8389H35.3857" stroke="#1E1E1E" stroke-width="4" stroke-miterlimit="10" stroke-linecap="round"/>
<path d="M14.0195 41.603V49.6609" stroke="#1E1E1E" stroke-width="4" stroke-miterlimit="10" stroke-linecap="round"/>
<path d="M18.0388 45.6404H10" stroke="#1E1E1E" stroke-width="4" stroke-miterlimit="10" stroke-linecap="round"/>
<path d="M26.6733 41.603V49.6609" stroke="#1E1E1E" stroke-width="4" stroke-miterlimit="10" stroke-linecap="round"/>
<path d="M30.6926 45.6404H22.6538" stroke="#1E1E1E" stroke-width="4" stroke-miterlimit="10" stroke-linecap="round"/>
<path d="M705.98 797V788.926" stroke="#1E1E1E" stroke-width="4.0447" stroke-miterlimit="10" stroke-linecap="round"/>
<path d="M701.961 792.963H710" stroke="#1E1E1E" stroke-width="4.0447" stroke-miterlimit="10" stroke-linecap="round"/>
<path d="M693.327 797V788.926" stroke="#1E1E1E" stroke-width="4.0447" stroke-miterlimit="10" stroke-linecap="round"/>
<path d="M689.307 792.963H697.346" stroke="#1E1E1E" stroke-width="4.0447" stroke-miterlimit="10" stroke-linecap="round"/>
<path d="M680.673 797V788.926" stroke="#1E1E1E" stroke-width="4.0447" stroke-miterlimit="10" stroke-linecap="round"/>
<path d="M676.654 792.963H684.692" stroke="#1E1E1E" stroke-width="4.0447" stroke-miterlimit="10" stroke-linecap="round"/>
<path d="M668.019 797V788.926" stroke="#1E1E1E" stroke-width="4.0447" stroke-miterlimit="10" stroke-linecap="round"/>
<path d="M664 792.963H672.039" stroke="#1E1E1E" stroke-width="4.0447" stroke-miterlimit="10" stroke-linecap="round"/>
<path d="M705.98 781.199V773.125" stroke="#1E1E1E" stroke-width="4.0447" stroke-miterlimit="10" stroke-linecap="round"/>
<path d="M701.961 777.161H710" stroke="#1E1E1E" stroke-width="4.0447" stroke-miterlimit="10" stroke-linecap="round"/>
<path d="M693.288 781.199V773.125" stroke="#1E1E1E" stroke-width="4.0447" stroke-miterlimit="10" stroke-linecap="round"/>
<path d="M689.268 777.161H697.307" stroke="#1E1E1E" stroke-width="4.0447" stroke-miterlimit="10" stroke-linecap="round"/>
<path d="M680.595 781.199V773.125" stroke="#1E1E1E" stroke-width="4.0447" stroke-miterlimit="10" stroke-linecap="round"/>
<path d="M676.575 777.161H684.614" stroke="#1E1E1E" stroke-width="4.0447" stroke-miterlimit="10" stroke-linecap="round"/>
<path d="M705.98 765.397V757.339" stroke="#1E1E1E" stroke-width="4.0447" stroke-miterlimit="10" stroke-linecap="round"/>
<path d="M701.961 761.36H710" stroke="#1E1E1E" stroke-width="4.0447" stroke-miterlimit="10" stroke-linecap="round"/>
<path d="M693.327 765.397V757.339" stroke="#1E1E1E" stroke-width="4.0447" stroke-miterlimit="10" stroke-linecap="round"/>
<path d="M689.307 761.36H697.346" stroke="#1E1E1E" stroke-width="4.0447" stroke-miterlimit="10" stroke-linecap="round"/>
</g>
<defs>
<clipPath id="clip0_1_90">
<rect width="720" height="809" fill="white"/>
</clipPath>
</defs>
</svg>
